<svg width="16" height="16" viewBox="0 0 16 16" fill="none" xmlns="http://www.w3.org/2000/svg">
<path d="M11.7051 12.9525C11.6506 12.9036 11.587 12.866 11.5178 12.842C11.4486 12.818 11.3754 12.808 11.3023 12.8127C11.2292 12.8173 11.1578 12.8365 11.0923 12.8691C11.0267 12.9018 10.9683 12.9471 10.9205 13.0026C10.6033 13.3643 10.147 13.5702 9.66849 13.5702H4.10393C3.18578 13.5702 2.43457 12.8189 2.43457 11.9008V4.10485C2.43457 3.18669 3.18578 2.43548 4.10393 2.43548H6.61355C6.70258 2.43548 6.79718 2.43548 6.88621 2.44661V5.21776C6.88621 6.13591 7.63742 6.88712 8.55558 6.88712H11.7886C11.9611 6.88712 12.1225 6.80922 12.2282 6.6701C12.3339 6.53099 12.3673 6.35849 12.3283 6.19155C12.1565 5.51346 11.8047 4.89438 11.31 4.39977L9.37357 2.4633C9.01257 2.10062 8.58328 1.81307 8.1105 1.61727C7.63772 1.42148 7.13083 1.32131 6.61911 1.32257H4.10393C2.56812 1.32257 1.32166 2.56903 1.32166 4.10485V11.8952C1.32166 13.431 2.56812 14.6775 4.10393 14.6775H9.66849C10.4642 14.6775 11.2266 14.3325 11.7552 13.7371C11.8041 13.6826 11.8417 13.6189 11.8657 13.5498C11.8897 13.4806 11.8997 13.4073 11.895 13.3343C11.8903 13.2612 11.8711 13.1898 11.8385 13.1242C11.8059 13.0587 11.7606 13.0003 11.7051 12.9525ZM7.99912 2.80274C8.21057 2.92516 8.40533 3.0754 8.5834 3.25347L10.5199 5.18993C10.6924 5.36243 10.8426 5.56276 10.965 5.77421H8.55001C8.24396 5.77421 7.99356 5.52381 7.99356 5.21776V2.80274H7.99912ZM14.1925 11.3888L13.2966 12.2847C13.1853 12.396 13.0462 12.4461 12.9015 12.4461C12.7568 12.4461 12.6177 12.3905 12.5064 12.2847C12.4548 12.2333 12.4139 12.1721 12.386 12.1048C12.3581 12.0375 12.3437 11.9653 12.3437 11.8924C12.3437 11.8196 12.3581 11.7474 12.386 11.6801C12.4139 11.6128 12.4548 11.5516 12.5064 11.5001L13.2242 10.7823H9.10647C8.80042 10.7823 8.55001 10.5319 8.55001 10.2259C8.55001 9.91981 8.80042 9.6694 9.10647 9.6694H13.2242L12.5064 8.95157C12.4549 8.90005 12.414 8.83889 12.3861 8.77158C12.3583 8.70427 12.3439 8.63213 12.3439 8.55927C12.3439 8.48641 12.3583 8.41427 12.3861 8.34696C12.414 8.27965 12.4549 8.21849 12.5064 8.16697C12.5579 8.11545 12.6191 8.07459 12.6864 8.04671C12.7537 8.01882 12.8259 8.00447 12.8987 8.00447C12.9716 8.00447 13.0437 8.01882 13.111 8.04671C13.1783 8.07459 13.2395 8.11545 13.291 8.16697L14.1869 9.06286C14.4943 9.37299 14.6668 9.79198 14.6668 10.2286C14.6668 10.6653 14.4943 11.0843 14.1869 11.3944L14.1925 11.3888Z" fill="white"/>
</svg>
