<svg width="152" height="31" viewBox="0 0 152 31" fill="none" xmlns="http://www.w3.org/2000/svg">
<path d="M94.7039 10.1687V1.43931H95.6267V10.1687H94.7039ZM100.163 10.1687V2.23742H97.0952V1.43931H104.154V2.23742H101.086V10.1687H100.163ZM97.1107 24.2435C96.4622 24.2435 95.8387 24.1396 95.2401 23.9318C94.6498 23.7156 94.1926 23.4413 93.8683 23.1087L94.23 22.3979C94.5376 22.6972 94.9491 22.9507 95.4646 23.1586C95.9883 23.3581 96.537 23.4579 97.1107 23.4579C97.6594 23.4579 98.1042 23.3914 98.445 23.2583C98.7942 23.117 99.0478 22.93 99.2057 22.6972C99.372 22.4644 99.4552 22.2067 99.4552 21.924C99.4552 21.5831 99.3554 21.3088 99.1559 21.1009C98.9646 20.8931 98.7111 20.731 98.3952 20.6146C98.0792 20.4899 97.7301 20.3818 97.3476 20.2904C96.9652 20.1989 96.5828 20.1033 96.2003 20.0035C95.8179 19.8955 95.4646 19.7541 95.1403 19.5795C94.8244 19.4049 94.5667 19.1763 94.3672 18.8937C94.176 18.6027 94.0803 18.2244 94.0803 17.7588C94.0803 17.3265 94.1926 16.9316 94.417 16.5741C94.6498 16.2083 95.0032 15.9173 95.477 15.7012C95.9509 15.4767 96.5578 15.3645 97.2977 15.3645C97.7883 15.3645 98.2746 15.4351 98.7568 15.5765C99.239 15.7095 99.6547 15.8966 100.004 16.1377L99.6921 16.8734C99.318 16.624 98.9189 16.4411 98.4949 16.3247C98.0792 16.2083 97.676 16.1501 97.2853 16.1501C96.7615 16.1501 96.3292 16.2208 95.9883 16.3621C95.6475 16.5035 95.3939 16.6947 95.2276 16.9358C95.0697 17.1686 94.9907 17.4346 94.9907 17.7339C94.9907 18.0748 95.0863 18.3491 95.2775 18.5569C95.477 18.7648 95.7348 18.9269 96.0507 19.0433C96.3749 19.1597 96.7283 19.2636 97.1107 19.3551C97.4931 19.4465 97.8714 19.5463 98.2455 19.6544C98.6279 19.7624 98.9771 19.9038 99.293 20.0784C99.6173 20.2446 99.875 20.4691 100.066 20.7518C100.266 21.0344 100.366 21.4044 100.366 21.8616C100.366 22.2856 100.249 22.6805 100.016 23.0464C99.7835 23.4038 99.4261 23.6948 98.9439 23.9193C98.47 24.1354 97.8589 24.2435 97.1107 24.2435ZM104.858 24.2311C104.226 24.2311 103.657 24.0897 103.149 23.8071C102.651 23.5161 102.256 23.1212 101.965 22.6224C101.674 22.1152 101.528 21.5374 101.528 20.8889C101.528 20.2322 101.674 19.6544 101.965 19.1555C102.256 18.6567 102.651 18.266 103.149 17.9833C103.648 17.7006 104.218 17.5593 104.858 17.5593C105.506 17.5593 106.08 17.7006 106.579 17.9833C107.086 18.266 107.481 18.6567 107.763 19.1555C108.054 19.6544 108.2 20.2322 108.2 20.8889C108.2 21.5374 108.054 22.1152 107.763 22.6224C107.481 23.1212 107.086 23.5161 106.579 23.8071C106.072 24.0897 105.498 24.2311 104.858 24.2311ZM104.858 23.4454C105.332 23.4454 105.752 23.3415 106.117 23.1336C106.483 22.9175 106.77 22.6182 106.978 22.2358C107.194 21.845 107.302 21.3961 107.302 20.8889C107.302 20.3735 107.194 19.9246 106.978 19.5421C106.77 19.1597 106.483 18.8646 106.117 18.6567C105.752 18.4406 105.336 18.3325 104.87 18.3325C104.405 18.3325 103.989 18.4406 103.623 18.6567C103.257 18.8646 102.966 19.1597 102.75 19.5421C102.534 19.9246 102.426 20.3735 102.426 20.8889C102.426 21.3961 102.534 21.845 102.75 22.2358C102.966 22.6182 103.257 22.9175 103.623 23.1336C103.989 23.3415 104.401 23.4454 104.858 23.4454ZM110.008 24.1687V14.9155H110.893V24.1687H110.008ZM116.063 24.2311C115.506 24.2311 115.019 24.1271 114.604 23.9193C114.188 23.7114 113.864 23.3997 113.631 22.984C113.407 22.5683 113.294 22.0487 113.294 21.4252V17.6217H114.18V21.3254C114.18 22.0238 114.35 22.5517 114.691 22.9092C115.04 23.2583 115.527 23.4329 116.15 23.4329C116.607 23.4329 117.002 23.3415 117.335 23.1586C117.676 22.9674 117.933 22.693 118.108 22.3355C118.291 21.978 118.382 21.5499 118.382 21.0511V17.6217H119.268V24.1687H118.42V22.3729L118.557 22.6972C118.349 23.1794 118.025 23.5576 117.584 23.832C117.152 24.098 116.645 24.2311 116.063 24.2311ZM123.805 24.2311C123.19 24.2311 122.716 24.0648 122.384 23.7322C122.051 23.3997 121.885 22.93 121.885 22.3231V16.1751H122.77V22.2732C122.77 22.6556 122.866 22.9507 123.057 23.1586C123.257 23.3664 123.539 23.4703 123.905 23.4703C124.296 23.4703 124.62 23.3581 124.878 23.1336L125.19 23.7696C125.015 23.9276 124.803 24.044 124.554 24.1188C124.313 24.1936 124.063 24.2311 123.805 24.2311ZM120.713 18.3574V17.6217H124.766V18.3574H120.713ZM126.801 24.1687V17.6217H127.687V24.1687H126.801ZM127.25 16.1751C127.067 16.1751 126.914 16.1127 126.789 15.988C126.664 15.8633 126.602 15.7137 126.602 15.5391C126.602 15.3645 126.664 15.219 126.789 15.1026C126.914 14.9779 127.067 14.9155 127.25 14.9155C127.433 14.9155 127.587 14.9737 127.712 15.0901C127.837 15.2065 127.899 15.352 127.899 15.5266C127.899 15.7095 127.837 15.8633 127.712 15.988C127.595 16.1127 127.442 16.1751 127.25 16.1751ZM132.819 24.2311C132.187 24.2311 131.618 24.0897 131.111 23.8071C130.612 23.5161 130.217 23.1212 129.926 22.6224C129.635 22.1152 129.49 21.5374 129.49 20.8889C129.49 20.2322 129.635 19.6544 129.926 19.1555C130.217 18.6567 130.612 18.266 131.111 17.9833C131.61 17.7006 132.179 17.5593 132.819 17.5593C133.468 17.5593 134.041 17.7006 134.54 17.9833C135.047 18.266 135.442 18.6567 135.725 19.1555C136.016 19.6544 136.161 20.2322 136.161 20.8889C136.161 21.5374 136.016 22.1152 135.725 22.6224C135.442 23.1212 135.047 23.5161 134.54 23.8071C134.033 24.0897 133.459 24.2311 132.819 24.2311ZM132.819 23.4454C133.293 23.4454 133.713 23.3415 134.079 23.1336C134.445 22.9175 134.731 22.6182 134.939 22.2358C135.155 21.845 135.263 21.3961 135.263 20.8889C135.263 20.3735 135.155 19.9246 134.939 19.5421C134.731 19.1597 134.445 18.8646 134.079 18.6567C133.713 18.4406 133.297 18.3325 132.832 18.3325C132.366 18.3325 131.95 18.4406 131.585 18.6567C131.219 18.8646 130.928 19.1597 130.712 19.5421C130.495 19.9246 130.387 20.3735 130.387 20.8889C130.387 21.3961 130.495 21.845 130.712 22.2358C130.928 22.6182 131.219 22.9175 131.585 23.1336C131.95 23.3415 132.362 23.4454 132.819 23.4454ZM141.311 17.5593C141.843 17.5593 142.309 17.6632 142.708 17.8711C143.115 18.0706 143.431 18.3782 143.656 18.7939C143.888 19.2096 144.005 19.7333 144.005 20.3652V24.1687H143.119V20.4525C143.119 19.7624 142.945 19.2428 142.596 18.8937C142.255 18.5362 141.772 18.3574 141.149 18.3574C140.683 18.3574 140.276 18.453 139.927 18.6442C139.586 18.8271 139.32 19.0973 139.129 19.4548C138.946 19.804 138.854 20.228 138.854 20.7268V24.1687H137.969V17.6217H138.817V19.4174L138.68 19.0807C138.888 18.6068 139.22 18.2369 139.677 17.9708C140.135 17.6965 140.679 17.5593 141.311 17.5593ZM148.155 24.2311C147.614 24.2311 147.103 24.1562 146.621 24.0066C146.139 23.8486 145.76 23.6533 145.486 23.4205L145.885 22.7221C146.151 22.9216 146.492 23.0962 146.908 23.2459C147.323 23.3872 147.76 23.4579 148.217 23.4579C148.841 23.4579 149.289 23.3623 149.564 23.1711C149.838 22.9715 149.975 22.7096 149.975 22.3854C149.975 22.1443 149.896 21.9573 149.738 21.8242C149.589 21.6829 149.389 21.579 149.14 21.5125C148.89 21.4376 148.612 21.3753 148.304 21.3254C147.997 21.2755 147.689 21.2173 147.381 21.1508C147.082 21.0843 146.808 20.9887 146.558 20.864C146.309 20.731 146.105 20.5522 145.947 20.3278C145.798 20.1033 145.723 19.804 145.723 19.4299C145.723 19.0724 145.823 18.7523 146.022 18.4697C146.222 18.187 146.513 17.9667 146.895 17.8087C147.286 17.6424 147.76 17.5593 148.317 17.5593C148.741 17.5593 149.165 17.6175 149.589 17.7339C150.013 17.842 150.362 17.9875 150.636 18.1704L150.25 18.8812C149.959 18.6817 149.647 18.5403 149.314 18.4572C148.982 18.3657 148.649 18.32 148.317 18.32C147.727 18.32 147.29 18.4239 147.007 18.6318C146.733 18.8313 146.596 19.089 146.596 19.4049C146.596 19.6544 146.671 19.8497 146.82 19.9911C146.978 20.1324 147.182 20.2446 147.431 20.3278C147.689 20.4026 147.968 20.4649 148.267 20.5148C148.575 20.5647 148.878 20.6271 149.177 20.7019C149.485 20.7684 149.763 20.864 150.013 20.9887C150.27 21.1051 150.474 21.2755 150.624 21.5C150.782 21.7162 150.861 22.003 150.861 22.3605C150.861 22.7429 150.753 23.0754 150.537 23.3581C150.329 23.6325 150.021 23.8486 149.614 24.0066C149.215 24.1562 148.728 24.2311 148.155 24.2311Z" fill="white"/>
<path d="M20.376 22.8016H17.1586L14.9388 20.2327C13.6585 20.8479 12.2535 21.1555 10.7238 21.1555C8.08001 21.1555 5.88519 20.2992 4.13931 18.5866C2.39343 16.8573 1.52049 14.6958 1.52049 12.1019C1.52049 9.50803 2.39343 7.35477 4.13931 5.64215C5.88519 3.9129 8.08001 3.04827 10.7238 3.04827C13.3675 3.04827 15.5624 3.9129 17.3082 5.64215C19.0541 7.35477 19.927 9.50803 19.927 12.1019C19.927 13.4487 19.6693 14.7041 19.1539 15.868C18.6551 17.0319 17.9401 18.0296 17.0089 18.8609L20.376 22.8016ZM10.7238 18.412C11.5385 18.412 12.3117 18.279 13.0433 18.013L9.2273 13.5485H12.4447L15.1384 16.6911C16.3854 15.4773 17.0089 13.9475 17.0089 12.1019C17.0089 10.3061 16.4103 8.80967 15.2132 7.6125C14.0326 6.3987 12.5362 5.7918 10.7238 5.7918C8.92801 5.7918 7.43154 6.3987 6.23437 7.6125C5.03719 8.80967 4.43861 10.3061 4.43861 12.1019C4.43861 13.8977 5.03719 15.4024 6.23437 16.6162C7.43154 17.8134 8.92801 18.412 10.7238 18.412ZM41.006 22.8016H37.7886L35.5688 20.2327C34.2885 20.8479 32.8835 21.1555 31.3538 21.1555C28.71 21.1555 26.5152 20.2992 24.7693 18.5866C23.0234 16.8573 22.1505 14.6958 22.1505 12.1019C22.1505 9.50803 23.0234 7.35477 24.7693 5.64215C26.5152 3.9129 28.71 3.04827 31.3538 3.04827C33.9975 3.04827 36.1924 3.9129 37.9382 5.64215C39.6841 7.35477 40.5571 9.50803 40.5571 12.1019C40.5571 13.4487 40.2993 14.7041 39.7839 15.868C39.2851 17.0319 38.5701 18.0296 37.639 18.8609L41.006 22.8016ZM31.3538 18.412C32.1685 18.412 32.9417 18.279 33.6733 18.013L29.8573 13.5485H33.0747L35.7684 16.6911C37.0154 15.4773 37.639 13.9475 37.639 12.1019C37.639 10.3061 37.0404 8.80967 35.8432 7.6125C34.6626 6.3987 33.1662 5.7918 31.3538 5.7918C29.558 5.7918 28.0616 6.3987 26.8644 7.6125C25.6672 8.80967 25.0686 10.3061 25.0686 12.1019C25.0686 13.8977 25.6672 15.4024 26.8644 16.6162C28.0616 17.8134 29.558 18.412 31.3538 18.412ZM64.5576 20.8313H61.6395L59.5944 8.18615L53.9327 20.5569H53.2094L47.5228 8.18615L45.4777 20.8313H42.5596L45.4029 3.37251H48.2212L53.5586 15.2445L58.896 3.37251H61.7393L64.5576 20.8313Z" fill="white"/>
<path d="M79.5645 1.66284L79.5645 24.9412" stroke="#B1B6C0" stroke-width="0.831371" stroke-linecap="round"/>
</svg>
