<svg width="164" height="32" viewBox="0 0 164 32" fill="none" xmlns="http://www.w3.org/2000/svg">
<path d="M94.7039 10.1687V1.43931H95.6267V10.1687H94.7039ZM100.163 10.1687V2.23742H97.0952V1.43931H104.154V2.23742H101.086V10.1687H100.163ZM96.3999 24.1687V16.2374H93.3321V15.4393H100.39V16.2374H97.3227V24.1687H96.3999ZM103.777 24.2311C103.095 24.2311 102.496 24.0897 101.981 23.8071C101.465 23.5161 101.062 23.1212 100.771 22.6224C100.48 22.1152 100.335 21.5374 100.335 20.8889C100.335 20.2405 100.472 19.6668 100.746 19.168C101.029 18.6692 101.411 18.2784 101.894 17.9958C102.384 17.7048 102.933 17.5593 103.54 17.5593C104.155 17.5593 104.699 17.7006 105.173 17.9833C105.655 18.2577 106.034 18.6484 106.308 19.1555C106.582 19.6544 106.72 20.2322 106.72 20.8889C106.72 20.9305 106.715 20.9762 106.707 21.0261C106.707 21.0677 106.707 21.1134 106.707 21.1633H101.008V20.5024H106.233L105.884 20.7642C105.884 20.2904 105.78 19.8705 105.572 19.5047C105.373 19.1306 105.098 18.8396 104.749 18.6318C104.4 18.4239 103.997 18.32 103.54 18.32C103.091 18.32 102.688 18.4239 102.33 18.6318C101.973 18.8396 101.694 19.1306 101.494 19.5047C101.295 19.8788 101.195 20.307 101.195 20.7892V20.9264C101.195 21.4252 101.303 21.8658 101.519 22.2482C101.744 22.6224 102.052 22.9175 102.442 23.1336C102.841 23.3415 103.294 23.4454 103.802 23.4454C104.201 23.4454 104.571 23.3747 104.911 23.2334C105.261 23.0921 105.56 22.8759 105.809 22.5849L106.308 23.1586C106.017 23.5078 105.651 23.7738 105.211 23.9567C104.778 24.1396 104.3 24.2311 103.777 24.2311ZM108.522 24.1687V14.9155H109.407V24.1687H108.522ZM114.652 24.2311C113.97 24.2311 113.371 24.0897 112.856 23.8071C112.341 23.5161 111.937 23.1212 111.646 22.6224C111.355 22.1152 111.21 21.5374 111.21 20.8889C111.21 20.2405 111.347 19.6668 111.621 19.168C111.904 18.6692 112.287 18.2784 112.769 17.9958C113.259 17.7048 113.808 17.5593 114.415 17.5593C115.03 17.5593 115.575 17.7006 116.049 17.9833C116.531 18.2577 116.909 18.6484 117.183 19.1555C117.458 19.6544 117.595 20.2322 117.595 20.8889C117.595 20.9305 117.591 20.9762 117.582 21.0261C117.582 21.0677 117.582 21.1134 117.582 21.1633H111.883V20.5024H117.109L116.759 20.7642C116.759 20.2904 116.655 19.8705 116.448 19.5047C116.248 19.1306 115.974 18.8396 115.625 18.6318C115.275 18.4239 114.872 18.32 114.415 18.32C113.966 18.32 113.563 18.4239 113.205 18.6318C112.848 18.8396 112.569 19.1306 112.37 19.5047C112.17 19.8788 112.07 20.307 112.07 20.7892V20.9264C112.07 21.4252 112.178 21.8658 112.395 22.2482C112.619 22.6224 112.927 22.9175 113.317 23.1336C113.717 23.3415 114.17 23.4454 114.677 23.4454C115.076 23.4454 115.446 23.3747 115.787 23.2334C116.136 23.0921 116.435 22.8759 116.685 22.5849L117.183 23.1586C116.892 23.5078 116.527 23.7738 116.086 23.9567C115.654 24.1396 115.176 24.2311 114.652 24.2311ZM122.116 24.2311C121.467 24.2311 120.885 24.0897 120.37 23.8071C119.863 23.5161 119.464 23.1212 119.173 22.6224C118.882 22.1152 118.736 21.5374 118.736 20.8889C118.736 20.2322 118.882 19.6544 119.173 19.1555C119.464 18.6567 119.863 18.266 120.37 17.9833C120.885 17.7006 121.467 17.5593 122.116 17.5593C122.673 17.5593 123.176 17.6674 123.625 17.8835C124.074 18.0997 124.427 18.4239 124.685 18.8562L124.024 19.3052C123.799 18.9726 123.521 18.7274 123.188 18.5694C122.856 18.4115 122.494 18.3325 122.103 18.3325C121.638 18.3325 121.218 18.4406 120.844 18.6567C120.47 18.8646 120.174 19.1597 119.958 19.5421C119.742 19.9246 119.634 20.3735 119.634 20.8889C119.634 21.4044 119.742 21.8533 119.958 22.2358C120.174 22.6182 120.47 22.9175 120.844 23.1336C121.218 23.3415 121.638 23.4454 122.103 23.4454C122.494 23.4454 122.856 23.3664 123.188 23.2085C123.521 23.0505 123.799 22.8094 124.024 22.4852L124.685 22.9341C124.427 23.3581 124.074 23.6823 123.625 23.9068C123.176 24.123 122.673 24.2311 122.116 24.2311ZM128.983 24.2311C128.351 24.2311 127.782 24.0897 127.275 23.8071C126.776 23.5161 126.381 23.1212 126.09 22.6224C125.799 22.1152 125.653 21.5374 125.653 20.8889C125.653 20.2322 125.799 19.6544 126.09 19.1555C126.381 18.6567 126.776 18.266 127.275 17.9833C127.773 17.7006 128.343 17.5593 128.983 17.5593C129.631 17.5593 130.205 17.7006 130.704 17.9833C131.211 18.266 131.606 18.6567 131.889 19.1555C132.18 19.6544 132.325 20.2322 132.325 20.8889C132.325 21.5374 132.18 22.1152 131.889 22.6224C131.606 23.1212 131.211 23.5161 130.704 23.8071C130.197 24.0897 129.623 24.2311 128.983 24.2311ZM128.983 23.4454C129.457 23.4454 129.877 23.3415 130.243 23.1336C130.608 22.9175 130.895 22.6182 131.103 22.2358C131.319 21.845 131.427 21.3961 131.427 20.8889C131.427 20.3735 131.319 19.9246 131.103 19.5421C130.895 19.1597 130.608 18.8646 130.243 18.6567C129.877 18.4406 129.461 18.3325 128.995 18.3325C128.53 18.3325 128.114 18.4406 127.748 18.6567C127.383 18.8646 127.092 19.1597 126.875 19.5421C126.659 19.9246 126.551 20.3735 126.551 20.8889C126.551 21.3961 126.659 21.845 126.875 22.2358C127.092 22.6182 127.383 22.9175 127.748 23.1336C128.114 23.3415 128.526 23.4454 128.983 23.4454ZM142.313 17.5593C142.846 17.5593 143.307 17.6632 143.698 17.8711C144.097 18.0706 144.404 18.3782 144.621 18.7939C144.845 19.2096 144.957 19.7333 144.957 20.3652V24.1687H144.072V20.4525C144.072 19.7624 143.906 19.2428 143.573 18.8937C143.249 18.5362 142.787 18.3574 142.189 18.3574C141.74 18.3574 141.349 18.453 141.017 18.6442C140.692 18.8271 140.439 19.0973 140.256 19.4548C140.081 19.804 139.994 20.228 139.994 20.7268V24.1687H139.109V20.4525C139.109 19.7624 138.942 19.2428 138.61 18.8937C138.277 18.5362 137.812 18.3574 137.213 18.3574C136.772 18.3574 136.386 18.453 136.053 18.6442C135.721 18.8271 135.463 19.0973 135.28 19.4548C135.105 19.804 135.018 20.228 135.018 20.7268V24.1687H134.133V17.6217H134.981V19.3925L134.844 19.0807C135.043 18.6068 135.363 18.2369 135.804 17.9708C136.253 17.6965 136.781 17.5593 137.388 17.5593C138.028 17.5593 138.572 17.7214 139.021 18.0457C139.47 18.3616 139.761 18.8396 139.894 19.4798L139.545 19.3426C139.736 18.8105 140.073 18.3824 140.555 18.0581C141.046 17.7256 141.632 17.5593 142.313 17.5593Z" fill="white"/>
<path d="M20.376 22.8016H17.1586L14.9388 20.2327C13.6585 20.8479 12.2535 21.1555 10.7238 21.1555C8.08001 21.1555 5.88519 20.2992 4.13931 18.5866C2.39343 16.8573 1.52049 14.6958 1.52049 12.1019C1.52049 9.50803 2.39343 7.35477 4.13931 5.64215C5.88519 3.9129 8.08001 3.04827 10.7238 3.04827C13.3675 3.04827 15.5624 3.9129 17.3082 5.64215C19.0541 7.35477 19.927 9.50803 19.927 12.1019C19.927 13.4487 19.6693 14.7041 19.1539 15.868C18.6551 17.0319 17.9401 18.0296 17.0089 18.8609L20.376 22.8016ZM10.7238 18.412C11.5385 18.412 12.3117 18.279 13.0433 18.013L9.2273 13.5485H12.4447L15.1384 16.6911C16.3854 15.4773 17.0089 13.9475 17.0089 12.1019C17.0089 10.3061 16.4103 8.80967 15.2132 7.6125C14.0326 6.3987 12.5362 5.7918 10.7238 5.7918C8.92801 5.7918 7.43154 6.3987 6.23437 7.6125C5.03719 8.80967 4.43861 10.3061 4.43861 12.1019C4.43861 13.8977 5.03719 15.4024 6.23437 16.6162C7.43154 17.8134 8.92801 18.412 10.7238 18.412ZM41.006 22.8016H37.7886L35.5688 20.2327C34.2885 20.8479 32.8835 21.1555 31.3538 21.1555C28.71 21.1555 26.5152 20.2992 24.7693 18.5866C23.0234 16.8573 22.1505 14.6958 22.1505 12.1019C22.1505 9.50803 23.0234 7.35477 24.7693 5.64215C26.5152 3.9129 28.71 3.04827 31.3538 3.04827C33.9975 3.04827 36.1924 3.9129 37.9382 5.64215C39.6841 7.35477 40.5571 9.50803 40.5571 12.1019C40.5571 13.4487 40.2993 14.7041 39.7839 15.868C39.2851 17.0319 38.5701 18.0296 37.639 18.8609L41.006 22.8016ZM31.3538 18.412C32.1685 18.412 32.9417 18.279 33.6733 18.013L29.8573 13.5485H33.0747L35.7684 16.6911C37.0154 15.4773 37.639 13.9475 37.639 12.1019C37.639 10.3061 37.0404 8.80967 35.8432 7.6125C34.6626 6.3987 33.1662 5.7918 31.3538 5.7918C29.558 5.7918 28.0616 6.3987 26.8644 7.6125C25.6672 8.80967 25.0686 10.3061 25.0686 12.1019C25.0686 13.8977 25.6672 15.4024 26.8644 16.6162C28.0616 17.8134 29.558 18.412 31.3538 18.412ZM64.5576 20.8313H61.6395L59.5944 8.18615L53.9327 20.5569H53.2094L47.5228 8.18615L45.4777 20.8313H42.5596L45.4029 3.37251H48.2212L53.5586 15.2445L58.896 3.37251H61.7393L64.5576 20.8313Z" fill="white"/>
<path d="M79.5646 1.66284L79.5646 24.9412" stroke="#B1B6C0" stroke-width="0.831371" stroke-linecap="round"/>
</svg>
