<svg width="24" height="24" viewBox="0 0 24 24" fill="none" xmlns="http://www.w3.org/2000/svg">
<path d="M11.3306 2.02151C13.7098 2.02151 15.6522 3.89577 15.7612 6.24808L15.7661 6.45609V7.38968C15.766 7.80377 15.4302 8.1396 15.0161 8.13968C14.6364 8.13968 14.3226 7.85732 14.2729 7.49124L14.2661 7.38968V6.45609C14.2659 4.89338 13.0438 3.61567 11.5034 3.5264L11.3306 3.52151H6.45557C4.8937 3.52173 3.61612 4.7439 3.52686 6.28421L3.52197 6.45609V17.5869C3.5222 19.1495 4.74408 20.4274 6.28369 20.5166L6.45557 20.5215H11.3413C12.8984 20.5213 14.1721 19.304 14.2612 17.7696L14.2661 17.5977V16.6543C14.2662 16.2402 14.602 15.9043 15.0161 15.9043C15.3957 15.9044 15.7096 16.1867 15.7593 16.5528L15.7661 16.6543V17.5977C15.766 19.9688 13.899 21.9048 11.5552 22.0166L11.3413 22.0215H6.45557C4.07731 22.0213 2.13586 20.147 2.02686 17.795L2.02197 17.5869V6.45609C2.0222 4.07723 3.89615 2.13543 6.24756 2.0264L6.45557 2.02151H11.3306ZM18.3501 8.57718C18.6157 8.31064 19.0317 8.28517 19.3257 8.50198L19.4106 8.57523L22.3384 11.4903C22.3718 11.5236 22.4014 11.5592 22.4272 11.5967L22.4312 11.6026C22.4371 11.6114 22.4402 11.6218 22.4458 11.6309C22.4641 11.6607 22.4819 11.6902 22.4956 11.7217C22.5034 11.7394 22.5087 11.758 22.5151 11.7764C22.5237 11.8011 22.5327 11.8253 22.5386 11.8506C22.547 11.8868 22.5522 11.9239 22.5552 11.9619C22.5556 11.9678 22.5558 11.9737 22.5562 11.9795C22.5569 11.9934 22.5591 12.0074 22.5591 12.0215C22.5591 12.0334 22.5557 12.045 22.5552 12.0567C22.554 12.0813 22.5519 12.1055 22.5483 12.1299C22.5451 12.1525 22.5409 12.1744 22.5356 12.1963C22.5309 12.2161 22.5254 12.2355 22.519 12.2549C22.5112 12.2788 22.5018 12.3015 22.4917 12.3242C22.4837 12.3424 22.4758 12.3604 22.4663 12.378C22.4551 12.3987 22.4423 12.4181 22.4292 12.4375C22.4226 12.4474 22.4187 12.4592 22.4116 12.4688L22.3862 12.4971C22.3766 12.5087 22.3672 12.5203 22.3569 12.5313L22.3384 12.5528L19.4106 15.4688C19.1173 15.761 18.6424 15.76 18.3501 15.4668C18.0845 15.2001 18.0607 14.7834 18.2788 14.4903L18.3521 14.4063L19.9917 12.7715H9.76807C9.35407 12.7713 9.01812 12.4355 9.01807 12.0215C9.01807 11.6419 9.30053 11.3281 9.6665 11.2784L9.76807 11.2715H19.9937L18.3521 9.63773C18.0852 9.37205 18.0597 8.95525 18.2769 8.66116L18.3501 8.57718Z" fill="white"/>
</svg>
