<svg width="22" height="21" viewBox="0 0 22 21" fill="none" xmlns="http://www.w3.org/2000/svg">
    <path d="M11.0089 20.4434C9.60279 20.435 8.21392 20.1336 6.93127 19.5584C5.64863 18.9832 4.50049 18.147 3.56041 17.1033C2.62033 16.0597 1.90902 14.8315 1.47206 13.4976C1.0351 12.1636 0.882117 10.7533 1.02291 9.35696C1.27308 7.1765 2.22651 5.13625 3.73953 3.54363C5.25255 1.95101 7.2432 0.892306 9.41153 0.527039C10.8123 0.310126 12.2421 0.368568 13.6205 0.699078C13.9834 0.792049 14.3147 0.980607 14.5796 1.24505C14.8446 1.50948 15.0335 1.8401 15.1267 2.20233C15.2205 2.56127 15.2156 2.93883 15.1126 3.29524C15.0095 3.65165 14.812 3.97373 14.5409 4.22754C10.7261 7.7084 11.0558 13.1176 15.2162 16.2636C15.5101 16.494 15.7368 16.7988 15.8727 17.1463C16.0085 17.4937 16.0487 17.8712 15.9889 18.2394C15.9291 18.6076 15.7716 18.9531 15.5327 19.2399C15.2938 19.5268 14.9822 19.7445 14.6305 19.8705C13.4613 20.2517 12.2389 20.4451 11.0089 20.4434ZM11.0708 2.07038C10.6016 2.06928 10.133 2.10474 9.66926 2.17644C7.86517 2.48192 6.20916 3.36355 4.95011 4.68882C3.69106 6.01409 2.89699 7.7114 2.68725 9.52566C2.55677 10.6949 2.67709 11.8784 3.04022 12.9977C3.40336 14.1169 4.00098 15.1462 4.7934 16.0172C5.95295 17.2539 7.44735 18.128 9.09511 18.5333C10.7429 18.9387 12.4731 18.8578 14.0757 18.3005C14.1445 18.2745 14.2053 18.2308 14.2518 18.1739C14.2983 18.117 14.329 18.0489 14.3407 17.9764C14.3524 17.9039 14.3447 17.8295 14.3185 17.7609C14.2922 17.6923 14.2483 17.6318 14.1912 17.5856C9.22995 13.8458 8.84002 7.15386 13.3987 3.00907C13.4508 2.96054 13.4883 2.89852 13.5071 2.82994C13.5258 2.76137 13.5251 2.68893 13.505 2.62073C13.4877 2.54803 13.4508 2.48144 13.3983 2.42816C13.3458 2.37488 13.2797 2.33693 13.2071 2.31841C12.5076 2.1502 11.7903 2.06692 11.0708 2.07038ZM18.1139 10.4218C17.9274 10.4218 17.7462 10.3595 17.5991 10.245C17.4521 10.1305 17.3476 9.97016 17.3023 9.78956L17.0027 8.59531L15.8045 8.27378C15.6242 8.22537 15.4654 8.11822 15.3532 7.96937C15.2411 7.82052 15.182 7.63852 15.1853 7.45229C15.1887 7.26606 15.2543 7.0863 15.3718 6.94159C15.4893 6.79687 15.6519 6.69551 15.8337 6.65361L17.0052 6.38219L17.2989 5.20799C17.3443 5.02741 17.4488 4.86713 17.5958 4.7526C17.7429 4.63808 17.9241 4.57588 18.1106 4.57588C18.2971 4.57588 18.4783 4.63808 18.6254 4.7526C18.7724 4.86713 18.8769 5.02741 18.9223 5.20799L19.2193 6.39222L20.4059 6.68869C20.5868 6.73395 20.7474 6.83824 20.8621 6.98501C20.9769 7.13178 21.0392 7.31261 21.0392 7.49878C21.0392 7.68494 20.9769 7.86577 20.8621 8.01254C20.7474 8.15931 20.5868 8.2636 20.4059 8.30886L19.2193 8.60533L18.9223 9.78956C18.8771 9.9696 18.7731 10.1295 18.6267 10.244C18.4803 10.3585 18.2999 10.421 18.1139 10.4218ZM14.3485 12.092C14.3485 12.3135 14.4366 12.5259 14.5936 12.6826C14.7505 12.8392 14.9633 12.9272 15.1852 12.9272C15.4072 12.9272 15.62 12.8392 15.7769 12.6826C15.9339 12.5259 16.022 12.3135 16.022 12.092C16.022 11.8705 15.9339 11.6581 15.7769 11.5015C15.62 11.3449 15.4072 11.2569 15.1852 11.2569C14.9633 11.2569 14.7505 11.3449 14.5936 11.5015C14.4366 11.6581 14.3485 11.8705 14.3485 12.092ZM19.3691 15.4326C19.3691 15.6541 19.4573 15.8665 19.6142 16.0231C19.7711 16.1797 19.9839 16.2677 20.2059 16.2677C20.4278 16.2677 20.6406 16.1797 20.7976 16.0231C20.9545 15.8665 21.0426 15.6541 21.0426 15.4326C21.0426 15.2111 20.9545 14.9987 20.7976 14.8421C20.6406 14.6854 20.4278 14.5975 20.2059 14.5975C19.9839 14.5975 19.7711 14.6854 19.6142 14.8421C19.4573 14.9987 19.3691 15.2111 19.3691 15.4326Z" fill="white"/>
</svg>
