<svg width="20" height="21" viewBox="0 0 20 21" fill="none" xmlns="http://www.w3.org/2000/svg">
<path d="M5.83333 0.398682H3.33333C2.44928 0.398682 1.60143 0.749871 0.976311 1.37499C0.35119 2.00011 0 2.84796 0 3.73201L0 6.23201C0 7.11607 0.35119 7.96392 0.976311 8.58904C1.60143 9.21416 2.44928 9.56535 3.33333 9.56535H5.83333C6.71739 9.56535 7.56523 9.21416 8.19036 8.58904C8.81548 7.96392 9.16667 7.11607 9.16667 6.23201V3.73201C9.16667 2.84796 8.81548 2.00011 8.19036 1.37499C7.56523 0.749871 6.71739 0.398682 5.83333 0.398682ZM7.5 6.23201C7.5 6.67404 7.3244 7.09797 7.01184 7.41053C6.69928 7.72309 6.27536 7.89868 5.83333 7.89868H3.33333C2.89131 7.89868 2.46738 7.72309 2.15482 7.41053C1.84226 7.09797 1.66667 6.67404 1.66667 6.23201V3.73201C1.66667 3.28999 1.84226 2.86606 2.15482 2.5535C2.46738 2.24094 2.89131 2.06535 3.33333 2.06535H5.83333C6.27536 2.06535 6.69928 2.24094 7.01184 2.5535C7.3244 2.86606 7.5 3.28999 7.5 3.73201V6.23201ZM16.6667 0.398682H14.1667C13.2826 0.398682 12.4348 0.749871 11.8096 1.37499C11.1845 2.00011 10.8333 2.84796 10.8333 3.73201V6.23201C10.8333 7.11607 11.1845 7.96392 11.8096 8.58904C12.4348 9.21416 13.2826 9.56535 14.1667 9.56535H16.6667C17.5507 9.56535 18.3986 9.21416 19.0237 8.58904C19.6488 7.96392 20 7.11607 20 6.23201V3.73201C20 2.84796 19.6488 2.00011 19.0237 1.37499C18.3986 0.749871 17.5507 0.398682 16.6667 0.398682ZM18.3333 6.23201C18.3333 6.67404 18.1577 7.09797 17.8452 7.41053C17.5326 7.72309 17.1087 7.89868 16.6667 7.89868H14.1667C13.7246 7.89868 13.3007 7.72309 12.9882 7.41053C12.6756 7.09797 12.5 6.67404 12.5 6.23201V3.73201C12.5 3.28999 12.6756 2.86606 12.9882 2.5535C13.3007 2.24094 13.7246 2.06535 14.1667 2.06535H16.6667C17.1087 2.06535 17.5326 2.24094 17.8452 2.5535C18.1577 2.86606 18.3333 3.28999 18.3333 3.73201V6.23201ZM5.83333 11.232H3.33333C2.44928 11.232 1.60143 11.5832 0.976311 12.2083C0.35119 12.8334 0 13.6813 0 14.5653L0 17.0653C0 17.9494 0.35119 18.7972 0.976311 19.4224C1.60143 20.0475 2.44928 20.3987 3.33333 20.3987H5.83333C6.71739 20.3987 7.56523 20.0475 8.19036 19.4224C8.81548 18.7972 9.16667 17.9494 9.16667 17.0653V14.5653C9.16667 13.6813 8.81548 12.8334 8.19036 12.2083C7.56523 11.5832 6.71739 11.232 5.83333 11.232ZM7.5 17.0653C7.5 17.5074 7.3244 17.9313 7.01184 18.2439C6.69928 18.5564 6.27536 18.732 5.83333 18.732H3.33333C2.89131 18.732 2.46738 18.5564 2.15482 18.2439C1.84226 17.9313 1.66667 17.5074 1.66667 17.0653V14.5653C1.66667 14.1233 1.84226 13.6994 2.15482 13.3868C2.46738 13.0743 2.89131 12.8987 3.33333 12.8987H5.83333C6.27536 12.8987 6.69928 13.0743 7.01184 13.3868C7.3244 13.6994 7.5 14.1233 7.5 14.5653V17.0653ZM16.6667 11.232H14.1667C13.2826 11.232 12.4348 11.5832 11.8096 12.2083C11.1845 12.8334 10.8333 13.6813 10.8333 14.5653V17.0653C10.8333 17.9494 11.1845 18.7972 11.8096 19.4224C12.4348 20.0475 13.2826 20.3987 14.1667 20.3987H16.6667C17.5507 20.3987 18.3986 20.0475 19.0237 19.4224C19.6488 18.7972 20 17.9494 20 17.0653V14.5653C20 13.6813 19.6488 12.8334 19.0237 12.2083C18.3986 11.5832 17.5507 11.232 16.6667 11.232ZM18.3333 17.0653C18.3333 17.5074 18.1577 17.9313 17.8452 18.2439C17.5326 18.5564 17.1087 18.732 16.6667 18.732H14.1667C13.7246 18.732 13.3007 18.5564 12.9882 18.2439C12.6756 17.9313 12.5 17.5074 12.5 17.0653V14.5653C12.5 14.1233 12.6756 13.6994 12.9882 13.3868C13.3007 13.0743 13.7246 12.8987 14.1667 12.8987H16.6667C17.1087 12.8987 17.5326 13.0743 17.8452 13.3868C18.1577 13.6994 18.3333 14.1233 18.3333 14.5653V17.0653Z" fill="white"/>
</svg>
