<svg width="18" height="23" viewBox="0 0 18 23" fill="none" xmlns="http://www.w3.org/2000/svg">
<path d="M16.155 5.58518L13.023 2.45318C12.4391 1.86659 11.7448 1.40152 10.9801 1.08484C10.2155 0.768158 9.39564 0.606153 8.568 0.608184H4.5C2.016 0.599184 0 2.61518 0 5.09918V17.6992C0 20.1832 2.016 22.1992 4.5 22.1992H13.5C15.984 22.1992 18 20.1832 18 17.6992V10.0402C18 8.35718 17.343 6.77318 16.155 5.58518ZM14.886 6.85418C15.174 7.14218 15.417 7.45718 15.615 7.79918H11.709C11.214 7.79918 10.809 7.39418 10.809 6.89918V2.99318C11.151 3.19118 11.466 3.43418 11.754 3.72218L14.886 6.85418ZM16.2 17.6992C16.2 19.1842 14.985 20.3992 13.5 20.3992H4.5C3.015 20.3992 1.8 19.1842 1.8 17.6992V5.09918C1.8 3.61418 3.015 2.39918 4.5 2.39918H8.559C8.703 2.39918 8.856 2.39918 9 2.41718V6.89918C9 8.38418 10.215 9.59918 11.7 9.59918H16.182C16.2 9.74318 16.2 9.88718 16.2 10.0402V17.6992ZM12.15 11.3992H5.85C5.25326 11.3992 4.68097 11.6362 4.25901 12.0582C3.83705 12.4802 3.6 13.0524 3.6 13.6492V16.3492C3.6 16.9459 3.83705 17.5182 4.25901 17.9402C4.68097 18.3621 5.25326 18.5992 5.85 18.5992H12.15C12.7467 18.5992 13.319 18.3621 13.741 17.9402C14.1629 17.5182 14.4 16.9459 14.4 16.3492V13.6492C14.4 13.0524 14.1629 12.4802 13.741 12.0582C13.319 11.6362 12.7467 11.3992 12.15 11.3992ZM12.6 16.3492C12.6 16.6012 12.402 16.7992 12.15 16.7992H5.85C5.598 16.7992 5.4 16.6012 5.4 16.3492V13.6492C5.4 13.3972 5.598 13.1992 5.85 13.1992H12.15C12.402 13.1992 12.6 13.3972 12.6 13.6492V16.3492ZM3.6 8.69918C3.6 8.20418 4.005 7.79918 4.5 7.79918H6.3C6.795 7.79918 7.2 8.20418 7.2 8.69918C7.2 9.19418 6.795 9.59918 6.3 9.59918H4.5C4.005 9.59918 3.6 9.19418 3.6 8.69918Z" fill="white"/>
</svg>
