<svg width="20" height="21" viewBox="0 0 20 21" fill="none" xmlns="http://www.w3.org/2000/svg">
    <path d="M19.1667 18.732H2.5C2.27899 18.732 2.06702 18.6442 1.91074 18.4879C1.75446 18.3317 1.66667 18.1197 1.66667 17.8987V1.23201C1.66667 1.011 1.57887 0.79904 1.42259 0.642759C1.26631 0.486479 1.05435 0.398682 0.833333 0.398682C0.61232 0.398682 0.400358 0.486479 0.244078 0.642759C0.0877974 0.79904 0 1.011 0 1.23201L0 17.8987C0 18.5617 0.263392 19.1976 0.732233 19.6664C1.20107 20.1353 1.83696 20.3987 2.5 20.3987H19.1667C19.3877 20.3987 19.5996 20.3109 19.7559 20.1546C19.9122 19.9983 20 19.7864 20 19.5653C20 19.3443 19.9122 19.1324 19.7559 18.9761C19.5996 18.8198 19.3877 18.732 19.1667 18.732Z" fill="white"/>
    <path d="M12.5 17.0653C12.721 17.0653 12.933 16.9776 13.0893 16.8213C13.2455 16.665 13.3333 16.453 13.3333 16.232V10.3987C13.3333 10.1777 13.2455 9.96571 13.0893 9.80943C12.933 9.65315 12.721 9.56535 12.5 9.56535C12.279 9.56535 12.067 9.65315 11.9107 9.80943C11.7545 9.96571 11.6667 10.1777 11.6667 10.3987V16.232C11.6667 16.453 11.7545 16.665 11.9107 16.8213C12.067 16.9776 12.279 17.0653 12.5 17.0653ZM5.83333 17.0653C6.05435 17.0653 6.26631 16.9776 6.42259 16.8213C6.57887 16.665 6.66667 16.453 6.66667 16.232V10.3987C6.66667 10.1777 6.57887 9.96571 6.42259 9.80943C6.26631 9.65315 6.05435 9.56535 5.83333 9.56535C5.61232 9.56535 5.40036 9.65315 5.24408 9.80943C5.0878 9.96571 5 10.1777 5 10.3987V16.232C5 16.453 5.0878 16.665 5.24408 16.8213C5.40036 16.9776 5.61232 17.0653 5.83333 17.0653ZM15.8333 17.0653C16.0543 17.0653 16.2663 16.9776 16.4226 16.8213C16.5789 16.665 16.6667 16.453 16.6667 16.232V6.23202C16.6667 6.011 16.5789 5.79904 16.4226 5.64276C16.2663 5.48648 16.0543 5.39868 15.8333 5.39868C15.6123 5.39868 15.4004 5.48648 15.2441 5.64276C15.0878 5.79904 15 6.011 15 6.23202V16.232C15 16.453 15.0878 16.665 15.2441 16.8213C15.4004 16.9776 15.6123 17.0653 15.8333 17.0653ZM9.16667 17.0653C9.38768 17.0653 9.59964 16.9776 9.75592 16.8213C9.9122 16.665 10 16.453 10 16.232V6.23202C10 6.011 9.9122 5.79904 9.75592 5.64276C9.59964 5.48648 9.38768 5.39868 9.16667 5.39868C8.94565 5.39868 8.73369 5.48648 8.57741 5.64276C8.42113 5.79904 8.33333 6.011 8.33333 6.23202V16.232C8.33333 16.453 8.42113 16.665 8.57741 16.8213C8.73369 16.9776 8.94565 17.0653 9.16667 17.0653Z" fill="white"/>
</svg>
