<svg width="24" height="24" viewBox="0 0 24 24" fill="none" xmlns="http://www.w3.org/2000/svg">
<path d="M15.7324 2C16.0828 2 16.3729 2.2622 16.4189 2.60254L16.4248 2.69727V3.4873C19.2678 3.68224 21.0089 5.5187 21 8.48535V16.9746C20.9998 20.1192 19.0448 22 15.9033 22H8.09668C4.95876 22 3 20.0865 3 16.9033V8.48535C3.00017 5.51975 4.74712 3.6827 7.58398 3.4873V2.69727C7.5842 2.31229 7.89338 2.00024 8.27539 2C8.62573 2 8.91588 2.26222 8.96191 2.60254L8.96777 2.69727V3.46875H15.04V2.69727C15.0403 2.3122 15.3503 2.00011 15.7324 2ZM4.38477 10.2832V16.9033C4.38477 19.3059 5.71394 20.6045 8.09668 20.6045H15.9033C18.2941 20.6045 19.6151 19.3337 19.6152 16.9746V10.2832H4.38477ZM7.9082 16.1357C8.29052 16.1358 8.60059 16.4487 8.60059 16.834C8.60044 17.1871 8.33977 17.4792 8.00195 17.5254L7.89941 17.5312C7.51723 17.5312 7.20719 17.2191 7.20703 16.834C7.20703 16.4808 7.46775 16.1888 7.80566 16.1426L7.9082 16.1357ZM12.0127 16.1357C12.395 16.1357 12.7051 16.4487 12.7051 16.834C12.7049 17.1871 12.4443 17.4792 12.1064 17.5254L12.0127 17.5312C11.6219 17.5312 11.3117 17.2191 11.3115 16.834C11.3115 16.4808 11.5723 16.1888 11.9102 16.1426L12.0127 16.1357ZM16.1084 16.1357C16.4907 16.1357 16.8008 16.4487 16.8008 16.834C16.8006 17.187 16.5408 17.4791 16.2031 17.5254L16.1084 17.5312C15.7178 17.531 15.4084 17.219 15.4082 16.834C15.4082 16.4808 15.6689 16.1888 16.0068 16.1426L16.1084 16.1357ZM7.9082 12.5205C8.29052 12.5206 8.60059 12.8335 8.60059 13.2188C8.60037 13.5718 8.33973 13.863 8.00195 13.9092L7.89941 13.916C7.51728 13.9159 7.20726 13.6038 7.20703 13.2188C7.20703 12.8655 7.46776 12.5735 7.80566 12.5273L7.9082 12.5205ZM12.0127 12.5205C12.395 12.5205 12.7051 12.8334 12.7051 13.2188C12.7049 13.5718 12.4442 13.863 12.1064 13.9092L12.0127 13.916C11.622 13.916 11.3118 13.6038 11.3115 13.2188C11.3115 12.8656 11.5723 12.5736 11.9102 12.5273L12.0127 12.5205ZM16.1084 12.5205C16.4907 12.5205 16.8008 12.8334 16.8008 13.2188C16.8006 13.5716 16.5407 13.8628 16.2031 13.9092L16.1084 13.916C15.7179 13.9158 15.4084 13.6037 15.4082 13.2188C15.4082 12.8655 15.6689 12.5735 16.0068 12.5273L16.1084 12.5205ZM8.96777 5.75879C8.96777 6.1441 8.65774 6.45605 8.27539 6.45605C7.9251 6.45583 7.63567 6.19391 7.58984 5.85352L7.58398 5.75879V4.88574C5.51981 5.05856 4.38492 6.30609 4.38477 8.48535V8.8877H19.6152V8.4834C19.6218 6.30264 18.4933 5.05683 16.4248 4.88477V5.75879C16.4248 6.1441 16.1148 6.45605 15.7324 6.45605C15.382 6.45596 15.0927 6.19398 15.0469 5.85352L15.04 5.75879V4.86426H8.96777V5.75879Z" fill="#374151"/>
</svg>
