<svg width="24" height="24" viewBox="0 0 24 24" fill="none" xmlns="http://www.w3.org/2000/svg">
    <path d="M3.75 6.56252H5.802C5.96298 7.15481 6.31438 7.67769 6.80199 8.05046C7.28961 8.42324 7.88634 8.62521 8.50012 8.62521C9.11391 8.62521 9.71064 8.42324 10.1983 8.05046C10.6859 7.67769 11.0373 7.15481 11.1982 6.56252H20.25C20.4489 6.56252 20.6397 6.4835 20.7803 6.34285C20.921 6.20219 21 6.01143 21 5.81252C21 5.6136 20.921 5.42284 20.7803 5.28219C20.6397 5.14153 20.4489 5.06252 20.25 5.06252H11.1982C11.0373 4.47022 10.6859 3.94734 10.1983 3.57457C9.71064 3.20179 9.11391 2.99982 8.50012 2.99982C7.88634 2.99982 7.28961 3.20179 6.80199 3.57457C6.31438 3.94734 5.96298 4.47022 5.802 5.06252H3.75C3.55109 5.06252 3.36032 5.14153 3.21967 5.28219C3.07902 5.42284 3 5.6136 3 5.81252C3 6.01143 3.07902 6.20219 3.21967 6.34285C3.36032 6.4835 3.55109 6.56252 3.75 6.56252ZM8.49975 4.50002C8.75934 4.50002 9.0131 4.57699 9.22894 4.72121C9.44478 4.86543 9.613 5.07042 9.71234 5.31024C9.81168 5.55007 9.83767 5.81397 9.78703 6.06857C9.73639 6.32317 9.61138 6.55704 9.42783 6.74059C9.24427 6.92415 9.01041 7.04915 8.75581 7.0998C8.50121 7.15044 8.23731 7.12445 7.99748 7.02511C7.75765 6.92577 7.55267 6.75754 7.40845 6.5417C7.26423 6.32586 7.18725 6.0721 7.18725 5.81252C7.18765 5.46454 7.32606 5.13093 7.57211 4.88488C7.81817 4.63882 8.15178 4.50041 8.49975 4.50002ZM20.25 11.25H18.198C18.0373 10.6576 17.686 10.1345 17.1985 9.76159C16.7109 9.38865 16.1141 9.18659 15.5002 9.18659C14.8864 9.18659 14.2896 9.38865 13.802 9.76159C13.3145 10.1345 12.9632 10.6576 12.8025 11.25H3.75C3.55109 11.25 3.36032 11.329 3.21967 11.4697C3.07902 11.6103 3 11.8011 3 12C3 12.1989 3.07902 12.3897 3.21967 12.5303C3.36032 12.671 3.55109 12.75 3.75 12.75H12.8025C12.9632 13.3425 13.3145 13.8655 13.802 14.2384C14.2896 14.6114 14.8864 14.8134 15.5002 14.8134C16.1141 14.8134 16.7109 14.6114 17.1985 14.2384C17.686 13.8655 18.0373 13.3425 18.198 12.75H20.25C20.4489 12.75 20.6397 12.671 20.7803 12.5303C20.921 12.3897 21 12.1989 21 12C21 11.8011 20.921 11.6103 20.7803 11.4697C20.6397 11.329 20.4489 11.25 20.25 11.25ZM15.5002 13.3125C15.2407 13.3125 14.9869 13.2355 14.7711 13.0913C14.5552 12.9471 14.387 12.7421 14.2877 12.5023C14.1883 12.2625 14.1623 11.9986 14.213 11.744C14.2636 11.4894 14.3886 11.2555 14.5722 11.0719C14.7557 10.8884 14.9896 10.7634 15.2442 10.7127C15.4988 10.6621 15.7627 10.6881 16.0025 10.7874C16.2424 10.8868 16.4473 11.055 16.5916 11.2708C16.7358 11.4867 16.8127 11.7404 16.8127 12C16.8124 12.348 16.6739 12.6816 16.4279 12.9277C16.1818 13.1737 15.8482 13.3121 15.5002 13.3125ZM20.25 17.4375H11.1982C11.0373 16.8452 10.6859 16.3223 10.1983 15.9496C9.71064 15.5768 9.11391 15.3748 8.50012 15.3748C7.88634 15.3748 7.28961 15.5768 6.80199 15.9496C6.31438 16.3223 5.96298 16.8452 5.802 17.4375H3.75C3.55109 17.4375 3.36032 17.5165 3.21967 17.6572C3.07902 17.7978 3 17.9886 3 18.1875C3 18.3864 3.07902 18.5772 3.21967 18.7178C3.36032 18.8585 3.55109 18.9375 3.75 18.9375H5.802C5.96298 19.5298 6.31438 20.0527 6.80199 20.4255C7.28961 20.7982 7.88634 21.0002 8.50012 21.0002C9.11391 21.0002 9.71064 20.7982 10.1983 20.4255C10.6859 20.0527 11.0373 19.5298 11.1982 18.9375H20.25C20.4489 18.9375 20.6397 18.8585 20.7803 18.7178C20.921 18.5772 21 18.3864 21 18.1875C21 17.9886 20.921 17.7978 20.7803 17.6572C20.6397 17.5165 20.4489 17.4375 20.25 17.4375ZM8.49975 19.5C8.24016 19.5 7.9864 19.423 7.77056 19.2788C7.55472 19.1346 7.3865 18.9296 7.28716 18.6898C7.18782 18.45 7.16183 18.1861 7.21247 17.9315C7.26311 17.6769 7.38812 17.443 7.57167 17.2594C7.75523 17.0759 7.98909 16.9509 8.24369 16.9002C8.49829 16.8496 8.76219 16.8756 9.00202 16.9749C9.24185 17.0743 9.44683 17.2425 9.59105 17.4583C9.73527 17.6742 9.81225 17.9279 9.81225 18.1875C9.81166 18.5354 9.67318 18.8689 9.42717 19.1149C9.18116 19.361 8.84766 19.4994 8.49975 19.5Z" fill="#4B5563"/>
</svg>
