<svg width="24" height="24" viewBox="0 0 24 24" fill="none" xmlns="http://www.w3.org/2000/svg">
<path d="M20.7894 19.7268L16.3054 15.2428C17.5273 13.7483 18.1281 11.8413 17.9835 9.91623C17.8388 7.99119 16.9598 6.19538 15.5283 4.90026C14.0967 3.60514 12.2221 2.90979 10.2923 2.95804C8.3624 3.00629 6.52491 3.79446 5.15987 5.1595C3.79482 6.52455 3.00666 8.36204 2.95841 10.2919C2.91016 12.2218 3.6055 14.0963 4.90063 15.5279C6.19575 16.9595 7.99155 17.8385 9.91659 17.9831C11.8416 18.1277 13.7486 17.5269 15.2431 16.305L19.7272 20.7891C19.8689 20.9259 20.0586 21.0016 20.2556 20.9999C20.4526 20.9982 20.641 20.9192 20.7803 20.7799C20.9196 20.6406 20.9986 20.4522 21.0003 20.2552C21.002 20.0583 20.9263 19.8685 20.7894 19.7268ZM10.4924 16.5018C9.30373 16.5018 8.1418 16.1493 7.15349 15.489C6.16518 14.8286 5.39489 13.89 4.94002 12.7919C4.48515 11.6937 4.36614 10.4853 4.59803 9.31954C4.82992 8.15375 5.4023 7.08291 6.24278 6.24242C7.08327 5.40193 8.15412 4.82955 9.31991 4.59766C10.4857 4.36577 11.6941 4.48479 12.7922 4.93966C13.8904 5.39452 14.829 6.16482 15.4893 7.15312C16.1497 8.14143 16.5022 9.30337 16.5022 10.492C16.5004 12.0853 15.8666 13.6129 14.74 14.7396C13.6133 15.8663 12.0857 16.5 10.4924 16.5018Z" fill="black"/>
</svg>
