<svg width="24" height="24" viewBox="0 0 24 24" fill="none" xmlns="http://www.w3.org/2000/svg">
<path d="M2.39844 20.5727C2.39844 17.3364 5.15315 14.7129 8.55125 14.7129H15.4457C18.8437 14.7129 21.5984 17.3364 21.5984 20.5727C21.5984 21.9076 20.6495 23.0667 19.2667 23.2849C17.536 23.558 14.9682 23.8557 11.9984 23.8557C9.02873 23.8557 6.46092 23.558 4.73021 23.2849C3.34735 23.0667 2.39844 21.9076 2.39844 20.5727Z" fill="#0078E7"/>
<path d="M6 6.71233C6 3.55642 8.6863 0.998047 12 0.998047C15.3137 0.998047 18 3.55642 18 6.71233C18 9.86825 15.3137 12.4266 12 12.4266C8.6863 12.4266 6 9.86825 6 6.71233Z" fill="#0078E7"/>
</svg>
